<?xml version="1.0" encoding="UTF-8" standalone="no"?>
<!DOCTYPE svg PUBLIC "-//W3C//DTD SVG 1.1//EN" "http://www.w3.org/Graphics/SVG/1.1/DTD/svg11.dtd">
<svg width="100%" height="100%" viewBox="0 0 930 150" version="1.1" xmlns="http://www.w3.org/2000/svg" xmlns:xlink="http://www.w3.org/1999/xlink" xml:space="preserve" xmlns:serif="http://www.serif.com/" style="fill-rule:evenodd;clip-rule:evenodd;stroke-linejoin:round;stroke-miterlimit:2;">
    <g transform="matrix(0.894613,0,0,0.894613,0,7.90399)">
        <g transform="matrix(0.869687,0,0,0.869687,0,44.9197)">
            <path d="M151.539,0.493C168.127,0.493 181.506,5.037 191.675,14.124C201.844,23.211 206.928,36.192 206.928,53.069C206.928,55.953 206.856,58.117 206.712,59.559L116.922,76.003C119.951,87.542 129.687,93.312 146.13,93.312C152.189,93.312 157.886,92.41 163.223,90.607C168.56,88.804 173.176,86.1 177.07,82.494L191.134,104.779C184.643,109.972 177.214,113.866 168.848,116.463C160.482,119.059 151.684,120.357 142.452,120.357C130.48,120.357 119.987,118.23 110.972,113.974C101.957,109.719 95.033,103.625 90.201,95.692C85.369,87.759 82.953,78.599 82.953,68.214C82.953,55.376 85.838,43.801 91.607,33.488C97.377,23.175 105.491,15.098 115.948,9.256C126.405,3.414 138.269,0.493 151.539,0.493ZM150.025,25.807C140.938,25.807 133.545,28.548 127.848,34.029C122.15,39.51 118.436,46.866 116.705,56.098L175.556,45.28C174.69,39.077 171.986,34.281 167.442,30.892C162.898,27.502 157.093,25.807 150.025,25.807Z" style="fill:rgb(199,4,4);fill-rule:nonzero;"/>
        </g>
        <g transform="matrix(0.869687,0,0,0.869687,0,43.4143)">
            <path d="M384.561,2.224C397.254,2.224 407.351,5.649 414.851,12.501C422.352,19.353 426.102,29.053 426.102,41.601C426.102,46.217 425.597,50.977 424.588,55.881L411.822,120.357L378.07,120.357L390.403,58.261C390.98,55.376 391.268,52.42 391.268,49.39C391.268,43.477 389.717,39.005 386.616,35.976C383.515,32.947 378.935,31.432 372.877,31.432C356.578,31.432 346.409,41.169 342.37,60.641L330.47,120.357L296.718,120.357L309.051,58.261C309.628,55.376 309.916,52.492 309.916,49.607C309.916,43.693 308.366,39.185 305.264,36.084C302.163,32.983 297.584,31.432 291.525,31.432C275.226,31.432 264.985,41.313 260.802,61.074L249.119,120.357L215.366,120.357L238.517,3.955L270.538,3.955L267.942,16.07C278.039,6.839 290.227,2.224 304.507,2.224C312.585,2.224 319.761,3.846 326.035,7.091C332.31,10.337 337.033,15.061 340.207,21.263C345.832,15.061 352.395,10.337 359.896,7.091C367.396,3.846 375.618,2.224 384.561,2.224Z" style="fill:rgb(199,4,4);fill-rule:nonzero;"/>
        </g>
        <g transform="matrix(0.869687,0,0,0.869687,0,-1.93375)">
            <path d="M465.48,56.098L499.016,56.098L475.865,172.5L442.329,172.5L465.48,56.098ZM487.982,39.87C482.212,39.87 477.488,38.176 473.81,34.785C470.132,31.396 468.293,27.25 468.293,22.345C468.293,16.576 470.348,11.78 474.459,7.958C478.57,4.135 483.943,2.224 490.578,2.224C496.492,2.224 501.288,3.846 504.966,7.091C508.644,10.337 510.483,14.339 510.483,19.1C510.483,25.302 508.392,30.315 504.209,34.136C500.026,37.96 494.617,39.87 487.982,39.87Z" style="fill:rgb(199,4,4);fill-rule:nonzero;"/>
        </g>
        <g transform="matrix(0.869687,0,0,0.869687,0,43.4143)">
            <path d="M598.11,2.224C611.091,2.224 621.405,5.649 629.049,12.501C636.694,19.353 640.517,29.125 640.517,41.818C640.517,46.578 640.012,51.266 639.002,55.881L626.02,120.357L592.268,120.357L604.817,58.045C605.394,55.593 605.682,52.924 605.682,50.039C605.682,43.981 604.024,39.366 600.706,36.192C597.388,33.019 592.412,31.432 585.777,31.432C577.123,31.432 569.947,33.921 564.249,38.897C558.552,43.873 554.693,51.338 552.674,61.29L540.99,120.357L507.238,120.357L530.389,3.955L562.41,3.955L559.814,16.504C570.199,6.983 582.964,2.224 598.11,2.224Z" style="fill:rgb(199,4,4);fill-rule:nonzero;"/>
        </g>
        <g transform="matrix(0.869687,0,0,0.869687,0,-1.93375)">
            <path d="M679.894,56.098L713.43,56.098L690.28,172.5L656.744,172.5L679.894,56.098ZM702.396,39.87C696.626,39.87 691.902,38.176 688.224,34.785C684.546,31.396 682.707,27.25 682.707,22.345C682.707,16.576 684.762,11.78 688.873,7.958C692.984,4.135 698.357,2.224 704.992,2.224C710.906,2.224 715.702,3.846 719.38,7.091C723.058,10.337 724.898,14.339 724.898,19.1C724.898,25.302 722.806,30.315 718.623,34.136C714.44,37.96 709.031,39.87 702.396,39.87Z" style="fill:rgb(199,4,4);fill-rule:nonzero;"/>
        </g>
        <g transform="matrix(0.869687,0,0,0.869687,0,5.0281)">
            <path d="M22.853,50.843L24.232,43.981C26.829,31 32.418,20.795 41.001,13.366C49.583,5.939 60.87,2.224 74.861,2.224C80.054,2.224 84.98,3.037 89.574,4.982C91.223,5.68 92.807,6.438 94.212,7.233L89.018,33.129C85.318,30.564 80.143,28.836 74.861,28.836C69.813,28.836 65.846,30.243 62.961,33.056C60.076,35.868 57.985,40.304 56.687,46.362L55.821,50.689L85.463,50.689L80.27,76.652L51.494,76.652L33.752,164.495L0,164.495L17.65,76.719L1.163,76.719L6.279,51.214L6.371,50.843L22.853,50.843Z" style="fill:rgb(199,4,4);fill-rule:nonzero;"/>
        </g>
        <g transform="matrix(0.869687,0,0,0.869687,0,44.9197)">
            <path d="M1059.61,93.528C1063.5,93.528 1066.75,92.951 1069.35,91.797L1065.88,117.544C1060.11,119.42 1053.98,120.357 1047.49,120.357C1039.13,120.357 1032.24,118.698 1026.83,115.381C1021.42,112.063 1017.71,107.448 1015.69,101.534C1005.45,114.083 991.743,120.357 974.579,120.357C965.492,120.357 957.126,118.266 949.481,114.083C941.836,109.9 935.742,103.878 931.198,96.016C926.655,88.155 924.383,78.888 924.383,68.214C924.383,55.376 927.232,43.801 932.929,33.488C938.627,23.175 946.38,15.098 956.188,9.256C965.996,3.414 976.814,0.493 988.642,0.493C1006.53,0.493 1019.15,6.335 1026.51,18.018L1029.53,2.224L1063.29,2.224L1048.14,77.734C1047.85,78.888 1047.71,80.474 1047.71,82.494C1047.71,86.244 1048.75,89.021 1050.85,90.824C1052.94,92.627 1055.86,93.528 1059.61,93.528ZM984.964,92.446C991.599,92.446 997.513,90.824 1002.71,87.578C1007.9,84.333 1011.94,79.825 1014.82,74.056C1017.71,68.286 1019.15,61.651 1019.15,54.15C1019.15,46.217 1016.81,39.943 1012.12,35.327C1007.43,30.711 1000.9,28.403 992.537,28.403C985.902,28.403 979.988,30.026 974.795,33.272C969.602,36.517 965.564,41.025 962.679,46.794C959.794,52.564 958.352,59.199 958.352,66.699C958.352,74.633 960.696,80.907 965.383,85.523C970.071,90.139 976.598,92.446 984.964,92.446Z" style="fill:rgb(199,4,4);fill-rule:nonzero;"/>
        </g>
        <g transform="matrix(0.869687,0,0,0.869687,0,24.0333)">
            <path d="M858.355,28.99L864.018,0.493L897.77,0.493L892.145,28.836L920.921,28.836L915.728,54.799L886.952,54.799L877.649,101.533C877.36,102.687 877.216,104.274 877.216,106.293C877.216,113.794 881.255,117.544 889.332,117.544C893.948,117.544 898.564,116.174 903.179,113.433L908.156,137.449C900.655,142.065 890.919,144.373 878.947,144.373C867.985,144.373 859.222,141.488 852.659,135.719C846.096,129.949 842.815,122.016 842.815,111.919C842.815,109.034 843.175,105.644 843.896,101.75L853.213,54.866L841.116,54.866L846.182,29.611L846.335,28.99L858.355,28.99Z" style="fill:rgb(199,4,4);fill-rule:nonzero;"/>
        </g>
        <g transform="matrix(0.869687,0,0,0.869687,0,44.9197)">
            <path d="M727.225,83.891L727.278,83.792C732.326,87.11 738.492,89.778 745.776,91.797C753.061,93.817 760.381,94.826 767.737,94.826C775.382,94.826 781.079,93.853 784.83,91.906C788.58,89.958 790.455,87.182 790.455,83.576C790.455,80.691 788.796,78.599 785.479,77.301C782.161,76.003 776.824,74.633 769.468,73.19C761.102,71.604 754.215,69.873 748.805,67.998C743.396,66.122 738.709,63.057 734.742,58.802C730.775,54.547 728.792,48.741 728.792,41.385C728.792,28.548 734.165,18.523 744.911,11.311C755.657,4.099 769.757,0.493 787.21,0.493C795.287,0.493 803.148,1.359 810.793,3.089C815.31,4.112 819.423,5.361 823.134,6.837L817.577,34.544C808.169,28.863 796.894,26.023 783.748,26.023C776.392,26.023 770.802,27.105 766.98,29.269C763.157,31.432 761.246,34.173 761.246,37.491C761.246,40.52 762.905,42.719 766.223,44.09C769.54,45.46 775.093,46.938 782.882,48.525C791.104,50.112 797.847,51.807 803.112,53.609C808.377,55.412 812.957,58.406 816.851,62.589C820.746,66.772 822.693,72.469 822.693,79.681C822.693,92.663 817.248,102.688 806.358,109.755C795.467,116.823 781.368,120.357 764.059,120.357C753.962,120.357 744.406,119.239 735.391,117.003C730.078,115.686 725.455,114.13 721.519,112.337L727.225,83.891Z" style="fill:rgb(199,4,4);fill-rule:nonzero;"/>
        </g>
        <g transform="matrix(0.869687,0,0,0.869687,316.171,44.9197)">
            <path d="M727.225,83.891L727.278,83.792C732.326,87.11 738.492,89.778 745.776,91.797C753.061,93.817 760.381,94.826 767.737,94.826C775.382,94.826 781.079,93.853 784.83,91.906C788.58,89.958 790.455,87.182 790.455,83.576C790.455,80.691 788.796,78.599 785.479,77.301C782.161,76.003 776.824,74.633 769.468,73.19C761.102,71.604 754.215,69.873 748.805,67.998C743.396,66.122 738.709,63.057 734.742,58.802C730.775,54.547 728.792,48.741 728.792,41.385C728.792,28.548 734.165,18.523 744.911,11.311C755.657,4.099 769.757,0.493 787.21,0.493C795.287,0.493 803.148,1.359 810.793,3.089C815.31,4.112 819.423,5.361 823.134,6.837L817.577,34.544C808.169,28.863 796.894,26.023 783.748,26.023C776.392,26.023 770.802,27.105 766.98,29.269C763.157,31.432 761.246,34.173 761.246,37.491C761.246,40.52 762.905,42.719 766.223,44.09C769.54,45.46 775.093,46.938 782.882,48.525C791.104,50.112 797.847,51.807 803.112,53.609C808.377,55.412 812.957,58.406 816.851,62.589C820.746,66.772 822.693,72.469 822.693,79.681C822.693,92.663 817.248,102.688 806.358,109.755C795.467,116.823 781.368,120.357 764.059,120.357C753.962,120.357 744.406,119.239 735.391,117.003C730.078,115.686 725.455,114.13 721.519,112.337L727.225,83.891Z" style="fill:rgb(199,4,4);fill-rule:nonzero;"/>
        </g>
    </g>
</svg>
